<svg width="800" height="1148" viewBox="0 0 800 1148" fill="none" xmlns="http://www.w3.org/2000/svg">
<g clip-path="url(#clip0_455_126)">
<rect width="800" height="1148" fill="#333333"/>
<path d="M145.945 177.038C165.996 220.088 218.256 297.392 266.885 262.211M266.885 262.211C327.671 218.234 281.156 192.152 266.304 197.919C251.453 203.686 228.975 233.636 266.885 262.211ZM266.885 262.211C279.502 275.379 320.789 293.462 385 260.448" stroke="#FFF4CC" stroke-width="3" stroke-dasharray="6 6"/>
<path d="M72.2404 58.6268L176.215 124.028L184.683 158.346L139.387 163.116L72.2404 58.6268ZM72.2404 58.6268L132.844 168.161L106.351 205.061L81.0777 186.012L72.2404 58.6268Z" stroke="#FFF4CC" stroke-width="3"/>
<path d="M147.548 478.397C107.645 531.712 65.3804 645.993 215.543 676.608C225.402 673.043 233.978 669 241.4 664.628M241.4 664.628C319.764 618.471 269.394 535.666 241.4 591.24C206.924 562.784 183.94 638.911 241.4 664.628ZM241.4 664.628C279.068 681.378 356.128 688.579 363.024 583.39" stroke="#FFE898" stroke-width="3" stroke-dasharray="6 6"/>
<path d="M101.581 409.71L284.495 345.93L223.204 502.928L179.888 461.716L157.125 471.528L152.337 441.11L101.581 409.71Z" fill="#252526"/>
<path d="M284.495 345.93L101.581 409.71L152.337 441.11M284.495 345.93L152.337 441.11M284.495 345.93L169.575 451.904M284.495 345.93L223.204 502.928L179.888 461.716M152.337 441.11L157.125 471.528M157.125 471.528L169.575 451.904M157.125 471.528L179.888 461.716M169.575 451.904L179.888 461.716" stroke="#FFE898" stroke-width="3"/>
<path d="M267.907 856.556C320.145 878.522 402.338 940.833 313.2 1014.34M313.2 1014.34C187.285 1058.9 176.414 1009.7 174.603 992.996C172.791 976.289 245.26 947.516 313.2 1014.34ZM313.2 1014.34C325.279 1046.83 337.84 1113.66 291.46 1121.08C233.484 1130.36 250.696 1064.12 286.025 1079.32C321.354 1094.51 330.412 1090.45 363.024 1148" stroke="#FFF4CC" stroke-width="3" stroke-dasharray="6 6"/>
<path d="M185.473 835.208L121.679 755.317L120.251 753.529L327.695 801.794L266.096 806.435L256.131 852.843L213.555 820.821L185.473 835.208Z" fill="#252526"/>
<path d="M120.251 753.529L185.473 835.208L213.555 820.821M120.251 753.529L241.637 806.435M120.251 753.529L327.695 801.794L266.096 806.435M241.637 806.435L256.131 852.843M241.637 806.435L213.555 820.821M256.131 852.843L266.096 806.435M256.131 852.843L213.555 820.821M266.096 806.435L116.627 753.529" stroke="#FFF4CC" stroke-width="3"/>
<path d="M284.034 29.08C269.141 26.7592 230.108 27.3945 221.899 53.02C211.637 85.0519 230.898 119.271 241.624 106.428C252.35 93.5838 223.5 72.5905 203.193 100.599C182.887 128.607 209.081 190.319 273.576 144.27" stroke="#FFE898" stroke-width="3" stroke-dasharray="6 6"/>
<path d="M355.869 101.627L260.698 98.9717L277.98 113.816M355.869 101.627L311.602 144.479L300.484 132.727M355.869 101.627L289.366 120.975M355.869 101.627L277.98 113.816M277.98 113.816L284.345 141.118M284.345 141.118L287.473 121.525L289.366 120.975M284.345 141.118L300.484 132.727M289.366 120.975L300.484 132.727" stroke="#FFE898" stroke-width="3"/>
<path d="M325.78 464.628L349.857 419.693M325.78 464.628L324.06 471.97M325.78 464.628L331.226 466.875M349.857 419.693L346.418 473.145L331.226 466.875M349.857 419.693L301.13 459.635L318.901 462.866M349.857 419.693L318.901 462.866M318.901 462.866L324.06 471.97M324.06 471.97L331.226 466.875" stroke="#FFF4CC" stroke-width="3"/>
<path d="M323.773 474.026C314.028 490.081 289.836 514.908 271.033 485.774C259.281 474.026 270.746 463.453 274.472 468.74C278.199 474.026 276.765 502.808 236.063 485.774" stroke="#FFF4CC" stroke-width="3" stroke-dasharray="6 6"/>
<path d="M610.692 1032.88C563.379 1036.98 470.311 1030.25 476.54 970.556M476.54 970.556C484.328 895.935 530.138 923.236 532.549 938.985C534.96 954.733 520.217 989.155 476.54 970.556ZM476.54 970.556C458.833 966.191 422.563 939.431 419.141 867.31" stroke="#FFF4CC" stroke-width="3" stroke-dasharray="6 6"/>
<path d="M750.086 1037.68L641.533 980.197L607.566 989.98L626.03 1031.62L750.086 1037.68ZM750.086 1037.68L624.922 1039.8L606.159 1081.17L635.277 1093.57L750.086 1037.68Z" stroke="#FFF4CC" stroke-width="3"/>
<path d="M526.715 520.634C460.213 524.098 345.354 564.768 417.94 699.739C426.99 705.033 435.585 709.035 443.694 711.939M443.694 711.939C529.315 742.607 560.699 650.908 500.082 664.968C499.88 620.266 426.677 651.33 443.694 711.939ZM443.694 711.939C454.934 751.601 498.722 815.419 583.957 753.393" stroke="#FFE898" stroke-width="3" stroke-dasharray="6 6"/>
<path d="M550.07 441.353L716.147 541.073L556.29 594.465L560.231 534.806L538.123 523.596L558.43 500.448L550.07 441.353Z" fill="#252526"/>
<path d="M716.147 541.073L550.07 441.353L558.43 500.448M716.147 541.073L558.43 500.448M716.147 541.073L561.169 520.602M716.147 541.073L556.29 594.465L560.231 534.806M558.43 500.448L538.123 523.596M538.123 523.596L561.169 520.602M538.123 523.596L560.231 534.806M561.169 520.602L560.231 534.806" stroke="#FFE898" stroke-width="3"/>
<path d="M551.675 209.69C503.859 217.668 423.149 253.319 482.842 332.095M482.842 332.095C578.863 394.022 597.617 355.22 602.422 341.67C607.226 328.121 552.58 289.873 482.842 332.095ZM482.842 332.095C466.379 356.753 442.738 409.901 479.88 425.233C526.307 444.397 525.05 385.857 492.644 391.538C460.238 397.219 453.499 392.052 415 433.519" stroke="#FFF4CC" stroke-width="3" stroke-dasharray="6 6"/>
<path d="M624.505 208.185L693.369 154.271L694.91 153.064L512.714 152.311L563.072 168.327L562.211 208.923L603.968 190.669L624.505 208.185Z" fill="#252526"/>
<path d="M694.91 153.064L624.505 208.185L603.968 190.669M694.91 153.064L583.431 173.153M694.91 153.064L512.714 152.311L563.072 168.327M583.431 173.153L562.211 208.923M583.431 173.153L603.968 190.669M562.211 208.923L563.072 168.327M562.211 208.923L603.968 190.669M563.072 168.327L697.926 153.779" stroke="#FFF4CC" stroke-width="3"/>
<path d="M694.361 817.291C703.802 829.041 722.724 863.186 704.611 883.085C681.97 907.959 642.704 908.338 648.484 892.635C654.264 876.931 686.851 891.461 672.708 923.033C658.565 954.605 592.014 962.691 599.747 883.822" stroke="#FFE898" stroke-width="3" stroke-dasharray="6 6"/>
<path d="M595.649 791.227L645.43 872.384L623.943 864.812M595.649 791.227L580.594 850.97L596.326 854.742M595.649 791.227L612.058 858.515M595.649 791.227L623.943 864.812M623.943 864.812L597.106 872.916M597.106 872.916L612.525 860.43L612.058 858.515M597.106 872.916L596.326 854.742M612.058 858.515L596.326 854.742" stroke="#FFE898" stroke-width="3"/>
<path d="M371.488 324.527L421.536 334.226M371.488 324.527L364.708 321.225M371.488 324.527L373.183 318.885M421.536 334.226L377.913 303.146L373.183 318.885M421.536 334.226L359.796 346.796L368.511 330.975M421.536 334.226L368.511 330.975M368.511 330.975L364.708 321.225M364.708 321.225L373.183 318.885" stroke="#FFF4CC" stroke-width="3"/>
<path d="M362.933 320.15C344.33 317.571 309.803 320.657 320.525 353.633C322.215 370.164 337.653 367.948 335.906 361.72C334.159 355.493 310.934 338.433 298.446 380.751" stroke="#FFF4CC" stroke-width="3" stroke-dasharray="6 6"/>
</g>
<defs>
<clipPath id="clip0_455_126">
<rect width="800" height="1148" fill="white"/>
</clipPath>
</defs>
</svg>
