<svg width="1322" height="780" viewBox="0 0 1322 780" fill="none" xmlns="http://www.w3.org/2000/svg">
<path d="M58.1131 386.625L129.085 357.676L220.602 221.335L312.119 196.121L1040.52 441.722C1045.19 425.536 1058.07 384.384 1072.27 349.272C1153.7 344.789 1217.01 376.664 1238.49 393.162C1238.49 388.182 1240.73 378.594 1249.7 380.088C1258.66 381.583 1272.73 408.104 1278.65 421.178L1320.67 630.359L188.851 451.994L58.1131 386.625Z" fill="#E8CCFF"/>
<path d="M1038.65 443.59L1073.2 348.338H1135.77L1038.65 121.414C1035.23 114.566 1014.93 91.3443 961.141 53.2435C907.352 15.1427 816.084 2.50465 777.174 0.948242L624.024 7.48515L1038.65 443.59Z" fill="#E8CCFF"/>
<path d="M985.42 171.842C1062.37 263.732 1050.48 390.05 1038.65 441.723C1047.05 441.723 1095.05 448.447 1189.93 475.341C1308.53 508.959 1341.21 593.939 1308.53 695.728C1282.38 777.159 1149.47 783.821 1086.28 776.972C788.068 737.751 172.976 652.585 98.2688 625.69C20.7598 576.196 -0.718572 505.224 1.14912 475.341C3.0168 445.458 14.2229 371.684 139.358 371.684C105.74 338.066 127.218 273.631 139.358 259.623C151.498 245.616 208.462 183.982 286.905 241.88C359.745 42.0378 541.845 3.75026 650.17 6.55179C758.496 9.35332 889.234 56.9793 985.42 171.842Z" fill="#E8CCFF"/>
<path d="M1068.53 218.534C1064.8 191.639 1034.6 142.581 1019.97 121.414C1245.03 113.943 1197.4 254.954 1183.4 275.498C1252.5 296.043 1258.1 365.147 1235.69 391.295C1190.87 355.435 1110.24 347.715 1073.2 349.272C1076.31 344.603 1077.87 333.21 1077.87 317.521C1077.87 297.91 1073.2 252.152 1068.53 218.534Z" fill="#E8CCFF"/>
<g style="mix-blend-mode:screen">
<g filter="url(#filter0_i_1027_172)">
<path d="M58.1133 386.625L129.085 357.676L220.602 221.335L312.119 196.121L1039.5 441.5C1044.17 425.313 1058.07 384.384 1072.27 349.271C1153.7 344.789 1217.01 376.664 1238.49 393.162C1238.49 388.181 1240.73 378.594 1249.7 380.088C1258.66 381.582 1272.73 408.103 1278.65 421.177L1320.67 630.358L188.851 451.994L58.1133 386.625Z" fill="#B293F9"/>
</g>
<path d="M58.1133 386.625L129.085 357.676L220.602 221.335L312.119 196.121L1039.5 441.5C1044.17 425.313 1058.07 384.384 1072.27 349.271C1153.7 344.789 1217.01 376.664 1238.49 393.162C1238.49 388.181 1240.73 378.594 1249.7 380.088C1258.66 381.582 1272.73 408.103 1278.65 421.177L1320.67 630.358L188.851 451.994L58.1133 386.625Z" stroke="url(#paint0_linear_1027_172)"/>
<g filter="url(#filter1_i_1027_172)">
<path d="M1038.65 443.59L1073.2 348.338H1135.77L1038.65 121.414C1035.23 114.566 1014.93 91.3443 961.141 53.2435C907.352 15.1427 816.084 2.50465 777.174 0.948242L624.023 7.48515L1038.65 443.59Z" fill="#868ADD"/>
</g>
<g filter="url(#filter2_i_1027_172)">
<path d="M985.42 171.842C1062.37 263.732 1050.48 390.05 1038.65 441.723C1047.05 441.723 1095.05 448.447 1189.93 475.341C1308.53 508.959 1341.21 593.939 1308.53 695.728C1282.38 777.159 1149.47 783.821 1086.28 776.973C788.068 737.751 172.976 652.585 98.2688 625.69C20.7598 576.196 -0.718572 505.224 1.14912 475.341C3.0168 445.458 14.2229 371.685 139.358 371.685C105.74 338.066 127.218 273.631 139.358 259.623C151.498 245.616 208.462 183.982 286.905 241.88C359.745 42.0379 541.844 3.75037 650.17 6.5519C758.496 9.35343 889.234 56.9795 985.42 171.842Z" fill="#E9F6FF"/>
</g>
<path d="M1081.96 447.956C1058.16 443.138 1044.18 441.379 1039.27 441.233C1051.07 389.142 1062.61 263.242 985.804 171.521C889.516 56.5369 758.637 8.8569 650.183 6.05207C541.875 3.25098 359.763 41.4922 286.664 241.083C247.53 212.434 213.691 213.384 188.087 223.321C162.405 233.289 145.063 252.277 138.98 259.296C135.888 262.864 132.244 269.582 129.041 278.139C125.832 286.709 123.05 297.166 121.702 308.239C119.054 330 121.938 354.251 138.171 371.187C76.256 371.419 42.3248 389.803 23.6458 411.985C4.86314 434.289 1.58585 460.338 0.650089 475.31C-1.22998 505.391 20.352 576.529 97.9997 626.111L98.0469 626.141L98.0995 626.16C107.477 629.536 125.294 633.815 149.841 638.793C174.399 643.774 205.725 649.461 242.143 655.651C314.978 668.032 408.192 682.425 508.387 697.203C708.777 726.76 937.105 757.857 1086.21 777.468L1086.22 777.47C1117.86 780.898 1166.95 780.947 1211.41 769.941C1255.86 758.94 1295.85 736.851 1309.01 695.881C1325.37 644.907 1325.4 598.072 1306.41 559.749C1287.42 521.418 1249.46 491.696 1190.07 474.86C1142.62 461.41 1106.89 453.002 1081.96 447.956Z" stroke="url(#paint1_linear_1027_172)"/>
<path d="M1068.53 218.534C1064.8 191.639 1034.6 142.581 1019.97 121.414C1245.03 113.944 1197.4 254.954 1183.4 275.498C1252.5 296.043 1258.1 365.147 1235.69 391.295C1190.87 355.435 1110.24 347.716 1073.2 349.272C1076.31 344.603 1077.87 333.21 1077.87 317.521C1077.87 297.911 1073.2 252.152 1068.53 218.534Z" fill="#E9F6FF"/>
</g>
<defs>
<filter id="filter0_i_1027_172" x="56.9023" y="195.599" width="1264.4" height="439.365" filterUnits="userSpaceOnUse" color-interpolation-filters="sRGB">
<feFlood flood-opacity="0" result="BackgroundImageFix"/>
<feBlend mode="normal" in="SourceGraphic" in2="BackgroundImageFix" result="shape"/>
<feColorMatrix in="SourceAlpha" type="matrix" values="0 0 0 0 0 0 0 0 0 0 0 0 0 0 0 0 0 0 127 0" result="hardAlpha"/>
<feOffset dy="4"/>
<feGaussianBlur stdDeviation="12.5"/>
<feComposite in2="hardAlpha" operator="arithmetic" k2="-1" k3="1"/>
<feColorMatrix type="matrix" values="0 0 0 0 0.644016 0 0 0 0 0.422812 0 0 0 0 0.825 0 0 0 0.5 0"/>
<feBlend mode="normal" in2="shape" result="effect1_innerShadow_1027_172"/>
</filter>
<filter id="filter1_i_1027_172" x="624.023" y="0.948242" width="521.746" height="442.642" filterUnits="userSpaceOnUse" color-interpolation-filters="sRGB">
<feFlood flood-opacity="0" result="BackgroundImageFix"/>
<feBlend mode="normal" in="SourceGraphic" in2="BackgroundImageFix" result="shape"/>
<feColorMatrix in="SourceAlpha" type="matrix" values="0 0 0 0 0 0 0 0 0 0 0 0 0 0 0 0 0 0 127 0" result="hardAlpha"/>
<feOffset dx="10"/>
<feGaussianBlur stdDeviation="12.5"/>
<feComposite in2="hardAlpha" operator="arithmetic" k2="-1" k3="1"/>
<feColorMatrix type="matrix" values="0 0 0 0 0 0 0 0 0 0 0 0 0 0 0 0 0 0 0.25 0"/>
<feBlend mode="normal" in2="shape" result="effect1_innerShadow_1027_172"/>
</filter>
<filter id="filter2_i_1027_172" x="-74.9609" y="5.41309" width="1396.44" height="774.587" filterUnits="userSpaceOnUse" color-interpolation-filters="sRGB">
<feFlood flood-opacity="0" result="BackgroundImageFix"/>
<feBlend mode="normal" in="SourceGraphic" in2="BackgroundImageFix" result="shape"/>
<feColorMatrix in="SourceAlpha" type="matrix" values="0 0 0 0 0 0 0 0 0 0 0 0 0 0 0 0 0 0 127 0" result="hardAlpha"/>
<feOffset dx="-75"/>
<feGaussianBlur stdDeviation="50"/>
<feComposite in2="hardAlpha" operator="arithmetic" k2="-1" k3="1"/>
<feColorMatrix type="matrix" values="0 0 0 0 0.74902 0 0 0 0 0.505882 0 0 0 0 0.94902 0 0 0 0.25 0"/>
<feBlend mode="normal" in2="shape" result="effect1_innerShadow_1027_172"/>
</filter>
<linearGradient id="paint0_linear_1027_172" x1="689.391" y1="196.121" x2="689.391" y2="630.358" gradientUnits="userSpaceOnUse">
<stop stop-color="#1F89DB"/>
<stop offset="1" stop-color="#F42A8B"/>
</linearGradient>
<linearGradient id="paint1_linear_1027_172" x1="660.761" y1="6.41309" x2="660.761" y2="779" gradientUnits="userSpaceOnUse">
<stop stop-color="#1F89DB"/>
<stop offset="1" stop-color="#F42A8B"/>
</linearGradient>
</defs>
</svg>
