<svg width="594" height="963" viewBox="0 0 594 963" fill="none" xmlns="http://www.w3.org/2000/svg">
<g clip-path="url(#clip0_455_235)">
<rect width="594" height="963" fill="#333333"/>
<path d="M86.3239 144.857C102.73 180.081 145.49 243.333 185.279 214.547M185.279 214.547C235.016 178.564 196.956 157.224 184.804 161.942C172.653 166.661 154.261 191.167 185.279 214.547ZM185.279 214.547C195.603 225.322 229.385 240.118 281.924 213.105" stroke="#FFF4CC" stroke-width="3" stroke-dasharray="6 6"/>
<path d="M26.0172 47.971L111.092 101.484L118.02 129.564L80.9584 133.466L26.0172 47.971ZM26.0172 47.971L75.6044 137.594L53.9269 167.787L33.2481 152.2L26.0172 47.971Z" stroke="#FFF4CC" stroke-width="3"/>
<path d="M87.6356 391.435C54.9862 435.057 20.404 528.565 143.27 553.615C151.337 550.698 158.354 547.39 164.427 543.813M164.427 543.813C228.546 506.045 187.332 438.293 164.427 483.765C136.218 460.482 117.412 522.771 164.427 543.813ZM164.427 543.813C195.248 557.518 258.3 563.41 263.942 477.342" stroke="#FFE898" stroke-width="3" stroke-dasharray="6 6"/>
<path d="M50.0239 335.234L199.689 283.047L149.539 411.507L114.097 377.786L95.4718 385.815L91.5539 360.926L50.0239 335.234Z" fill="#252526"/>
<path d="M199.689 283.047L50.0239 335.234L91.5539 360.926M199.689 283.047L91.5539 360.926M199.689 283.047L105.658 369.757M199.689 283.047L149.539 411.507L114.097 377.786M91.5539 360.926L95.4718 385.815M95.4718 385.815L105.658 369.757M95.4718 385.815L114.097 377.786M105.658 369.757L114.097 377.786" stroke="#FFE898" stroke-width="3"/>
<path d="M186.116 700.852C228.859 718.825 296.11 769.809 223.176 829.957M223.176 829.957C120.149 866.411 111.255 826.16 109.772 812.49C108.29 798.82 167.586 775.277 223.176 829.957ZM223.176 829.957C233.059 856.538 243.337 911.218 205.388 917.294C157.951 924.888 172.034 870.683 200.94 883.119C229.847 895.555 237.259 892.232 263.942 939.318" stroke="#FFF4CC" stroke-width="3" stroke-dasharray="6 6"/>
<path d="M118.667 683.385L66.4687 618.017L65.3005 616.554L235.036 656.045L184.634 659.842L176.481 697.814L141.644 671.614L118.667 683.385Z" fill="#252526"/>
<path d="M65.3005 616.554L118.667 683.385L141.644 671.614M65.3005 616.554L164.621 659.842M65.3005 616.554L235.036 656.045L184.634 659.842M164.621 659.842L176.481 697.814M164.621 659.842L141.644 671.614M176.481 697.814L184.634 659.842M176.481 697.814L141.644 671.614M184.634 659.842L62.3357 616.554" stroke="#FFF4CC" stroke-width="3"/>
<path d="M199.311 23.794C187.126 21.8951 155.188 22.4149 148.471 43.3823C140.075 69.5914 155.834 97.5906 164.611 87.0815C173.387 76.5724 149.781 59.3953 133.166 82.3123C116.551 105.229 137.983 155.724 190.754 118.045" stroke="#FFE898" stroke-width="3" stroke-dasharray="6 6"/>
<path d="M258.088 83.1538L180.217 80.9814L194.358 93.1277M258.088 83.1538L221.868 118.217L212.771 108.601M258.088 83.1538L203.674 98.9849M258.088 83.1538L194.358 93.1277M194.358 93.1277L199.566 115.467M199.566 115.467L202.126 99.4354L203.674 98.9849M199.566 115.467L212.771 108.601M203.674 98.9849L212.771 108.601" stroke="#FFE898" stroke-width="3"/>
<path d="M233.469 380.169L253.17 343.402M233.469 380.169L232.062 386.176M233.469 380.169L237.925 382.008M253.17 343.402L250.355 387.138L237.925 382.008M253.17 343.402L213.3 376.084L227.84 378.727M253.17 343.402L227.84 378.727M227.84 378.727L232.062 386.176M232.062 386.176L237.925 382.008" stroke="#FFF4CC" stroke-width="3"/>
<path d="M231.827 387.86C223.853 400.996 204.059 421.31 188.674 397.472C179.058 387.86 188.439 379.209 191.488 383.534C194.537 387.86 193.364 411.409 160.061 397.472" stroke="#FFF4CC" stroke-width="3" stroke-dasharray="6 6"/>
<path d="M466.59 845.124C427.877 848.478 351.727 842.975 356.824 794.13M356.824 794.13C363.196 733.074 400.678 755.412 402.652 768.298C404.625 781.183 392.561 809.349 356.824 794.13ZM356.824 794.13C342.336 790.559 312.659 768.663 309.859 709.652" stroke="#FFF4CC" stroke-width="3" stroke-dasharray="6 6"/>
<path d="M580.645 849.052L491.824 802.018L464.032 810.022L479.139 844.089L580.645 849.052ZM580.645 849.052L478.233 850.789L462.881 884.639L486.705 894.784L580.645 849.052Z" stroke="#FFF4CC" stroke-width="3"/>
<path d="M397.879 425.994C343.464 428.828 249.484 462.106 308.876 572.542C316.281 576.873 323.314 580.148 329.949 582.524M329.949 582.524C400.006 607.617 425.684 532.587 376.086 544.091C375.921 507.515 316.025 532.933 329.949 582.524ZM329.949 582.524C339.145 614.977 374.974 667.194 444.715 616.442" stroke="#FFE898" stroke-width="3" stroke-dasharray="6 6"/>
<path d="M416.987 361.125L552.875 442.718L422.076 486.404L425.301 437.59L407.212 428.418L423.827 409.478L416.987 361.125Z" fill="#252526"/>
<path d="M552.875 442.718L416.987 361.125L423.827 409.478M552.875 442.718L423.827 409.478M552.875 442.718L426.069 425.968M552.875 442.718L422.076 486.404L425.301 437.59M423.827 409.478L407.212 428.418M407.212 428.418L426.069 425.968M407.212 428.418L425.301 437.59M426.069 425.968L425.301 437.59" stroke="#FFE898" stroke-width="3"/>
<path d="M418.301 171.573C379.177 178.101 313.138 207.271 361.981 271.727M361.981 271.727C440.547 322.398 455.892 290.648 459.823 279.562C463.754 268.476 419.041 237.18 361.981 271.727ZM361.981 271.727C348.51 291.903 329.166 335.39 359.556 347.935C397.544 363.615 396.516 315.717 370.001 320.365C343.486 325.013 337.971 320.785 306.471 354.714" stroke="#FFF4CC" stroke-width="3" stroke-dasharray="6 6"/>
<path d="M477.892 170.342L534.238 126.228L535.499 125.241L386.422 124.625L427.627 137.73L426.922 170.946L461.089 156.01L477.892 170.342Z" fill="#252526"/>
<path d="M535.499 125.241L477.892 170.342L461.089 156.01M535.499 125.241L444.285 141.678M535.499 125.241L386.422 124.625L427.627 137.73M444.285 141.678L426.922 170.946M444.285 141.678L461.089 156.01M426.922 170.946L427.627 137.73M426.922 170.946L461.089 156.01M427.627 137.73L537.967 125.826" stroke="#FFF4CC" stroke-width="3"/>
<path d="M535.05 668.726C542.775 678.339 558.258 706.278 543.437 722.56C524.912 742.912 492.783 743.222 497.513 730.373C502.242 717.524 528.906 729.413 517.333 755.246C505.761 781.079 451.307 787.695 457.635 723.163" stroke="#FFE898" stroke-width="3" stroke-dasharray="6 6"/>
<path d="M454.282 647.398L495.014 713.803L477.432 707.607M454.282 647.398L441.964 696.281L454.836 699.368M454.282 647.398L467.708 702.455M454.282 647.398L477.432 707.607M477.432 707.607L455.474 714.238M455.474 714.238L468.09 704.022L467.708 702.455M455.474 714.238L454.836 699.368M467.708 702.455L454.836 699.368" stroke="#FFE898" stroke-width="3"/>
<path d="M270.868 265.535L311.818 273.471M270.868 265.535L265.321 262.834M270.868 265.535L272.256 260.919M311.818 273.471L276.125 248.041L272.256 260.919M311.818 273.471L261.302 283.756L268.433 270.811M311.818 273.471L268.433 270.811M268.433 270.811L265.321 262.834M265.321 262.834L272.256 260.919" stroke="#FFF4CC" stroke-width="3"/>
<path d="M263.869 261.955C248.647 259.844 220.396 262.37 229.169 289.351C230.552 302.877 243.184 301.063 241.754 295.968C240.325 290.873 221.322 276.914 211.104 311.54" stroke="#FFF4CC" stroke-width="3" stroke-dasharray="6 6"/>
</g>
<defs>
<clipPath id="clip0_455_235">
<rect width="594" height="963" fill="white"/>
</clipPath>
</defs>
</svg>
