<svg width="567" height="726" viewBox="0 0 567 726" fill="none" xmlns="http://www.w3.org/2000/svg">
<g clip-path="url(#clip0_528_217)">
<path d="M242.979 273.99C242.979 262.902 253.983 255.176 264.411 258.94L534.181 356.307C540.635 358.637 544.885 364.822 544.746 371.683L539.991 605.071C539.753 616.778 527.432 624.272 516.927 619.099L251.911 488.603C246.443 485.91 242.979 480.344 242.979 474.249V273.99Z" fill="black"/>
<path d="M258.979 290.544C258.979 285.015 264.453 281.153 269.662 283.007L509.066 368.215C515.578 370.532 519.865 376.77 519.696 383.68L514.782 584.361C514.64 590.158 508.57 593.883 503.337 591.384L268.085 479.053C262.522 476.396 258.979 470.779 258.979 464.614V290.544Z" fill="#333333"/>
<g filter="url(#filter0_ii_528_217)">
<path d="M236.929 486.985C241.724 484.902 247.189 485.006 251.901 487.271L529.092 620.51L318.914 723.089C313.629 725.668 307.418 725.503 302.277 722.647L67.4492 592.187C54.4082 584.942 55.335 565.888 69.0176 559.943L236.929 486.985Z" fill="#D1BCF9"/>
</g>
<path d="M340.481 389.205L345.481 392.705C342.814 404.538 336.08 428.405 330.48 429.205C324.88 430.005 312.147 425.872 306.48 423.705C298.314 423.872 280.68 423.605 275.48 421.205C270.28 418.805 273.314 416.538 275.48 415.705H301.48C292.814 413.372 274.68 407.705 271.48 403.705C268.28 399.705 271.147 397.705 272.98 397.205C283.48 400.372 304.38 406.605 303.98 406.205C303.58 405.805 282.48 394.038 271.98 388.205C271.647 388.872 271.38 389.205 272.98 385.205C274.58 381.205 298.314 389.872 309.981 394.705C300.814 388.872 283.18 376.205 285.98 372.205C288.78 368.205 305.48 377.872 313.48 383.205C317.48 385.872 325.58 390.305 325.98 386.705C326.48 382.205 316.481 378.705 312.981 377.205C309.481 375.705 307.981 376.205 309.981 371.205C326.781 364.805 337.314 380.538 340.481 389.205Z" fill="#FFE4CC"/>
<g filter="url(#filter1_ii_528_217)">
<path d="M539.481 207.205C536.814 240.538 521.581 305.205 481.981 297.205C456.32 292.021 461.161 268.562 474.98 242.433C458.456 245.977 444.155 246.211 431.98 244.392C433.98 253.996 436.18 272.805 428.98 271.205C419.98 269.205 406.98 269.705 393.48 273.205C386.744 274.951 385.623 271.341 386.502 266.962C383.283 271.768 377.157 276.213 366.48 275.705C349.68 274.905 353.814 255.705 357.981 246.205C354.148 251.871 344.081 264.005 334.481 267.205C322.481 271.205 297.481 243.705 323.481 217.205C344.281 196.005 352.814 170.038 354.481 159.705C353.648 152.038 358.591 127.761 361.98 120.205C392.48 52.2044 426.98 49.2046 431.48 47.2046C435.98 45.2046 503.481 19.2048 541.981 77.2048C580.481 135.205 551.981 179.705 545.981 183.205C541.181 186.005 539.648 200.372 539.481 207.205Z" fill="#741D7B"/>
</g>
<g filter="url(#filter2_ii_528_217)">
<path d="M431.98 244.392C444.155 246.211 458.456 245.977 474.98 242.433C467.335 256.888 462.438 270.526 463.933 280.705C464.594 285.205 466.505 289.03 469.98 291.949C472.853 294.362 476.794 296.157 481.981 297.205C488.148 298.705 503.18 298.405 513.98 285.205C526.48 291.205 546.98 298.705 520.98 350.205C494.98 401.705 466.48 465.705 440.98 466.205C420.58 466.605 358.147 443.705 329.48 432.205L346.98 389.205C369.314 403.205 416.68 428.605 427.48 418.205C438.28 407.805 468.314 361.371 481.981 338.705L359.48 293.205C366.98 286.871 379.08 276.405 393.48 273.205C402.165 270.953 410.642 269.943 417.98 270.041C422.05 270.096 425.77 270.491 428.98 271.205C436.18 272.805 433.98 253.996 431.98 244.392Z" fill="#F9B9FF"/>
</g>
<g filter="url(#filter3_i_528_217)">
<path d="M417.98 270.042C422.05 270.096 425.77 270.491 428.98 271.205L439.98 292.119L463.933 280.705C464.594 285.206 466.505 289.03 469.98 291.95C457.282 293.496 447.48 293.349 439.98 292.119C419.368 288.737 416.147 277.167 417.98 270.042Z" fill="white"/>
</g>
<g filter="url(#filter4_i_528_217)">
<path d="M474.98 242.433C458.456 245.977 444.155 246.211 431.98 244.392C433.98 253.996 436.18 272.805 428.98 271.205L439.98 292.119L463.933 280.705C462.438 270.526 467.335 256.888 474.98 242.433Z" fill="#FFDBC4"/>
</g>
<g filter="url(#filter5_i_528_217)">
<path d="M357.981 246.205L379.48 212.705C385.271 223.33 402.307 239.959 431.98 244.392C433.98 253.996 436.18 272.804 428.98 271.204C419.98 269.204 406.98 269.704 393.48 273.204C386.743 274.951 385.622 271.341 386.501 266.962C383.282 271.767 377.156 276.213 366.48 275.704C349.68 274.904 353.814 255.705 357.981 246.205Z" fill="#4F1354"/>
</g>
<path d="M407.981 130.205C404.315 143.038 393.082 169.105 377.482 170.705C372.682 188.705 376.815 206.205 379.481 212.705C385.271 223.33 402.308 239.959 431.981 244.392C444.155 246.211 458.456 245.977 474.981 242.432C487.819 218.158 508.405 191.579 519.481 175.205C483.081 181.205 477.648 150.371 479.481 134.205C476.815 150.371 464.981 182.105 438.981 179.705C412.981 177.305 407.481 145.705 407.981 130.205Z" fill="#FFE4CC"/>
<path d="M416.98 209.705C419.314 212.371 425.68 217.605 432.48 217.205C439.28 216.805 446.314 214.371 448.98 213.205" stroke="black" stroke-width="2" stroke-linecap="round" stroke-linejoin="round"/>
<path fill-rule="evenodd" clip-rule="evenodd" d="M397.869 138.906C405.903 136.88 413.079 139.711 415.841 141.502C416.999 142.253 417.329 143.801 416.578 144.959C415.827 146.118 414.279 146.448 413.12 145.697C411.215 144.462 405.458 142.149 399.092 143.754C392.369 145.449 387.635 149.058 386.267 150.454C385.301 151.441 383.718 151.458 382.731 150.492C381.745 149.526 381.728 147.943 382.694 146.956C384.66 144.949 390.192 140.842 397.869 138.906ZM472.209 147.264C469.668 147.471 468.355 148.168 468.038 148.42C466.958 149.28 465.385 149.102 464.525 148.022C463.665 146.942 463.843 145.369 464.923 144.509C466.273 143.434 468.66 142.537 471.802 142.28C475.018 142.017 479.189 142.406 484.268 144.092C494.203 147.389 501.567 152.535 504.147 154.842C505.176 155.762 505.264 157.342 504.344 158.372C503.424 159.401 501.844 159.489 500.814 158.569C498.728 156.704 491.958 151.912 482.693 148.837C478.172 147.337 474.676 147.062 472.209 147.264Z" fill="#4F1354"/>
<g filter="url(#filter6_i_528_217)">
<path fill-rule="evenodd" clip-rule="evenodd" d="M469.806 168.524C470.934 166.873 472.409 165.129 474.043 163.755C475.69 162.369 477.414 161.431 479.047 161.241C480.606 161.058 482.203 161.542 483.738 163.275C483.947 163.511 484.155 163.77 484.362 164.054C484.271 164.039 484.179 164.026 484.087 164.017C479.691 163.568 475.423 170.108 474.554 178.624C473.685 187.141 476.544 194.408 480.939 194.857C485.335 195.305 489.602 188.765 490.471 180.249C491.025 174.822 490.065 169.902 488.158 166.931C487.288 164.798 486.308 163.159 485.235 161.948C483.3 159.763 481.072 158.99 478.815 159.254C476.63 159.509 474.546 160.719 472.756 162.224C470.952 163.741 469.36 165.631 468.155 167.396C467.843 167.852 467.961 168.474 468.417 168.786C468.873 169.097 469.495 168.98 469.806 168.524Z" fill="#271E2F"/>
</g>
<ellipse cx="485.98" cy="171.205" rx="2" ry="4" fill="white"/>
<g filter="url(#filter7_d_528_217)">
<path d="M431.122 184.97C431.122 185.38 430.948 185.777 430.879 186.179C430.67 187.388 430.51 188.604 430.233 189.799C429.781 191.751 429.494 193.8 428.802 195.685C428.492 196.532 427.972 197.31 427.629 198.149C427.49 198.488 427.223 199.077 427.223 199.431M433.479 185.294C433.479 188.889 432.341 192.422 432.341 196.019C432.341 196.704 432.36 197.381 432.264 198.05C432.216 198.392 432.179 198.779 432.179 199.106M436.322 186.432C436.322 187.375 436.147 188.36 436.015 189.294C435.829 190.616 435.661 191.958 435.595 193.293C435.551 194.213 435.531 195.197 435.307 196.096C435.207 196.496 435.104 197.076 435.104 197.481M438.435 186.757C438.435 188.763 438.279 190.726 437.988 192.701C437.729 194.467 437.379 196.282 437.379 198.05M474.41 198.827C474.022 199.264 473.646 199.769 473.299 200.239C472.435 201.404 471.904 202.764 471.091 203.957C470.838 204.329 470.605 204.714 470.356 205.088C470.257 205.237 470.117 205.382 470.05 205.549C470.001 205.673 469.905 205.856 469.905 205.989M476.662 199.368C476.497 199.606 476.346 199.851 476.184 200.091C475.919 200.482 475.763 200.867 475.571 201.295C475.36 201.763 475.171 202.322 474.88 202.743C474.623 203.115 474.321 203.421 474.004 203.737C473.436 204.305 472.788 205.19 472.788 206.034M478.103 199.999C478.103 201.8 477.643 203.575 477.212 205.314C477.05 205.969 476.876 206.683 476.84 207.358C476.829 207.553 476.836 207.849 476.752 208.016M481.437 200.043C481.437 202.825 481.302 205.596 481.302 208.376M484.184 201.575V206.159C484.184 206.425 484.214 206.65 484.094 206.89M391.322 184.762C391.274 185.285 390.759 185.871 390.513 186.325C390.069 187.143 389.563 187.915 389.075 188.705C388.742 189.245 388.417 189.735 388.125 190.308C388.01 190.534 387.894 190.77 387.787 190.983M394.998 184.691C394.998 185.184 394.616 185.787 394.366 186.2C394.039 186.74 393.86 187.342 393.585 187.908C393.037 189.034 392.448 190.136 391.904 191.266C391.405 192.299 391.11 193.247 391.11 194.376M397.048 186.6C397.048 188.662 396.568 190.708 396.341 192.75C396.268 193.41 396.129 194.1 396.129 194.761C396.129 194.918 396.199 195.366 396.059 195.437M400.441 188.297C400.441 190.56 400.209 192.715 399.593 194.871" stroke="#FFA2A2" stroke-linecap="round"/>
</g>
<path d="M481.98 40.7046C481.314 31.7046 474.28 13.2046 451.48 11.2046" stroke="#6AA25C" stroke-width="2" stroke-linecap="round" stroke-linejoin="round"/>
<g filter="url(#filter8_di_528_217)">
<path d="M413.48 17.7046C444.68 22.1046 451.814 15.2046 451.48 11.2046C450.48 2.70461 435.98 2.20461 429.48 7.20461C422.98 12.2046 425.48 6.70461 413.48 17.7046Z" fill="#7DBE6D"/>
<path d="M413.48 17.7046C444.68 22.1046 451.814 15.2046 451.48 11.2046C450.48 2.70461 435.98 2.20461 429.48 7.20461C422.98 12.2046 425.48 6.70461 413.48 17.7046Z" stroke="#6AA25C" stroke-width="2" stroke-linecap="round" stroke-linejoin="round"/>
</g>
<path d="M450.48 11.2047C449.98 11.2047 441.48 7.70473 429.98 13.7047" stroke="#6AA25C" stroke-width="2" stroke-linecap="round" stroke-linejoin="round"/>
<g filter="url(#filter9_i_528_217)">
<path fill-rule="evenodd" clip-rule="evenodd" d="M394.806 159.524C395.934 157.873 397.409 156.129 399.043 154.755C400.69 153.369 402.414 152.431 404.047 152.241C405.606 152.058 407.203 152.542 408.738 154.275C408.947 154.511 409.155 154.77 409.362 155.054C409.271 155.039 409.179 155.026 409.087 155.017C404.691 154.568 400.423 161.108 399.554 169.624C398.685 178.141 401.544 185.408 405.939 185.857C410.335 186.305 414.602 179.765 415.471 171.249C416.025 165.822 415.065 160.902 413.158 157.931C412.288 155.798 411.308 154.159 410.235 152.948C408.3 150.763 406.072 149.99 403.815 150.254C401.63 150.509 399.546 151.719 397.756 153.224C395.952 154.741 394.36 156.631 393.155 158.396C392.843 158.852 392.961 159.474 393.417 159.786C393.873 160.097 394.495 159.98 394.806 159.524Z" fill="#271E2F"/>
<ellipse cx="410.98" cy="162.205" rx="2" ry="4" fill="white"/>
</g>
<path d="M476.614 624.616L483.096 621.532C486.117 620.095 486.143 615.803 483.139 614.329L476.188 610.919L461.893 617.045L476.614 624.616Z" fill="#271E2F"/>
<path d="M459.585 615.858L473.82 609.757L463.289 604.589L449.317 610.577L459.585 615.858Z" fill="#271E2F"/>
<path d="M447.01 609.39L460.922 603.428L447.455 596.82L434.407 602.909L447.01 609.39Z" fill="#271E2F"/>
<path d="M432.157 601.752L445.15 595.689L432.752 589.605L419.544 595.265L432.157 601.752Z" fill="#271E2F"/>
<path d="M417.236 594.079L430.385 588.444L414.161 580.483L402.316 586.405L417.236 594.079Z" fill="#271E2F"/>
<path d="M400.111 585.272L411.904 579.375L397.471 572.293L385.851 577.937L400.111 585.272Z" fill="#271E2F"/>
<path d="M382.379 579.525L382.418 579.605L382.478 579.575L389.429 583.15L376.839 588.546L362.859 581.356L375.448 575.961L382.379 579.525Z" fill="#271E2F"/>
<path d="M379.147 589.733L391.736 584.337L407.687 592.54L395.097 597.935L379.147 589.733Z" fill="#271E2F"/>
<path d="M397.405 599.122L409.994 593.727L425.07 601.48L412.772 607.026L397.405 599.122Z" fill="#271E2F"/>
<path d="M415.045 608.195L427.344 602.649L444.429 611.436L431.839 616.831L415.045 608.195Z" fill="#271E2F"/>
<path d="M434.147 618.018L446.736 612.623L473.208 626.237L461.219 631.941L434.147 618.018Z" fill="#271E2F"/>
<path d="M430.375 619.635L430.274 619.399L419.193 613.701L419.375 614.125L405.772 619.954L422.858 628.741L436.812 622.761L430.569 619.551L430.375 619.635Z" fill="#271E2F"/>
<path d="M348.087 573.759L360.552 580.169L373.141 574.774L360.676 568.363L348.087 573.759Z" fill="#271E2F"/>
<path d="M344.9 560.25L358.368 567.176L345.778 572.572L338.635 568.898L338.587 568.786L338.495 568.826L332.262 565.62L344.9 560.25Z" fill="#271E2F"/>
<path d="M342.588 559.061L329.949 564.431L315.203 556.847L327.793 551.452L342.588 559.061Z" fill="#271E2F"/>
<path d="M325.485 550.265L312.896 555.66L300.24 549.152L312.41 543.541L325.485 550.265Z" fill="#271E2F"/>
<path d="M310.152 542.38L297.982 547.99L284.711 541.165L296.881 535.554L310.152 542.38Z" fill="#271E2F"/>
<path d="M294.623 534.393L282.453 540.004L269.348 533.264L281.519 527.654L294.623 534.393Z" fill="#271E2F"/>
<path d="M279.261 526.492L267.09 532.103L254.192 525.47L265.909 519.626L279.261 526.492Z" fill="#271E2F"/>
<path d="M263.703 518.492L251.986 524.336L241.627 519.008L253.322 513.153L263.703 518.492Z" fill="#271E2F"/>
<path d="M251.118 512.019L239.424 517.875L231.409 513.753L243.653 508.18L251.118 512.019Z" fill="#271E2F"/>
<path d="M241.387 507.014L229.143 512.588L221.498 508.656L234.226 503.332L241.387 507.014Z" fill="#271E2F"/>
<path d="M274.677 520.762L264.553 515.555L273.108 511.27L283.662 516.449L274.677 520.762Z" fill="#271E2F"/>
<path d="M282.98 525L283.265 525.178L289.521 528.396L299.507 524.224L285.947 517.57L276.908 521.909L282.719 524.898L282.98 525Z" fill="#271E2F"/>
<path d="M383.627 576.794L395.193 571.176L381.97 564.687L382.324 565.655L370.431 570.007L383.627 576.794Z" fill="#271E2F"/>
<path d="M368.012 568.763L380.765 564.096L366.926 557.305L354.72 561.927L368.012 568.763Z" fill="#271E2F"/>
<path d="M352.324 560.695L364.467 556.098L349.776 548.89L338.638 553.656L352.324 560.695Z" fill="#271E2F"/>
<path d="M336.328 552.468L347.408 547.728L333.657 540.981L323.492 545.867L336.328 552.468Z" fill="#271E2F"/>
<path d="M321.262 544.72L331.373 539.86L317.647 533.125L306.99 537.38L321.262 544.72Z" fill="#271E2F"/>
<path d="M304.634 536.168L315.228 531.938L301.893 525.394L291.846 529.592L304.634 536.168Z" fill="#271E2F"/>
<path d="M262.35 514.422L270.852 510.163L259.569 504.627L250.264 508.206L262.35 514.422Z" fill="#271E2F"/>
<path d="M247.879 506.98L257.121 503.426L253.818 501.805C249.156 499.517 243.733 499.355 238.942 501.359L237.843 501.819L247.879 506.98Z" fill="#271E2F"/>
<path d="M320.483 562.936L334.917 570.359L321.087 576.286L321.15 576.434L306.53 568.915L320.483 562.936Z" fill="#271E2F"/>
<path d="M336.798 584.482L323.272 577.526L337.226 571.546L350.751 578.502L336.798 584.482Z" fill="#271E2F"/>
<path d="M339.105 585.669L353.059 579.689L365.523 586.099L351.57 592.079L339.105 585.669Z" fill="#271E2F"/>
<path d="M353.879 593.266L367.831 587.286L381.812 594.476L367.858 600.456L353.879 593.266Z" fill="#271E2F"/>
<path d="M370.166 601.643L384.119 595.663L400.069 603.865L386.116 609.845L370.166 601.643Z" fill="#271E2F"/>
<path d="M388.424 611.032L402.377 605.052L417.417 612.788L403.465 618.767L388.424 611.032Z" fill="#271E2F"/>
<path d="M425.166 629.928L439.119 623.948L457.812 633.562L444.523 639.884L425.166 629.928Z" fill="#271E2F"/>
<path d="M401.875 621.625L401.709 621.238L395.761 618.178L379.737 625.745L395.598 634.044L411.765 626.409L402.195 621.488L401.875 621.625Z" fill="#271E2F"/>
<path d="M318.175 561.749L304.222 567.728L291.292 561.079L304.781 554.86L318.175 561.749Z" fill="#271E2F"/>
<path d="M302.522 553.699L289.034 559.918L275.763 553.092L289.252 546.874L302.522 553.699Z" fill="#271E2F"/>
<path d="M286.993 545.713L273.505 551.931L260.4 545.192L273.889 538.973L286.993 545.713Z" fill="#271E2F"/>
<path d="M271.631 537.811L258.142 544.03L245.077 537.311L258.244 530.927L271.631 537.811Z" fill="#271E2F"/>
<path d="M256.02 529.782L242.853 536.167L232.042 530.607L245.652 524.451L256.02 529.782Z" fill="#271E2F"/>
<path d="M230.068 529.304L230.238 529.679L219.03 523.916L232.601 517.739L243.381 523.283L230.068 529.304Z" fill="#271E2F"/>
<path d="M230.334 516.573L216.764 522.75L203.775 516.07L217.882 510.169L230.334 516.573Z" fill="#271E2F"/>
<path d="M217.866 526.69L200.159 517.583L185.082 523.89L202.899 533.214L217.866 526.69Z" fill="#271E2F"/>
<path d="M220.162 527.87L205.174 534.404L218.488 541.371L233.237 534.595L220.162 527.87Z" fill="#271E2F"/>
<path d="M235.497 535.757L220.729 542.543L232.931 548.927L248.363 542.374L235.497 535.757Z" fill="#271E2F"/>
<path d="M250.678 543.564L235.223 550.127L249.018 557.345L263.854 550.34L250.678 543.564Z" fill="#271E2F"/>
<path d="M266.095 551.493L251.239 558.508L264.407 565.398L279.382 558.326L266.095 551.493Z" fill="#271E2F"/>
<path d="M281.623 559.479L266.629 566.56L280.033 573.574L295.149 566.436L281.623 559.479Z" fill="#271E2F"/>
<path d="M297.392 567.589L282.255 574.737L296.636 582.261L311.903 575.052L297.392 567.589Z" fill="#271E2F"/>
<path d="M314.146 576.205L298.857 583.424L312.29 590.453L327.7 583.176L314.146 576.205Z" fill="#271E2F"/>
<path d="M329.942 584.329L314.512 591.615L326.939 598.118L342.483 590.779L329.942 584.329Z" fill="#271E2F"/>
<path d="M344.725 591.931L329.161 599.281L335.958 602.837L336.052 602.792L336.111 602.917L343.068 606.558L358.758 599.149L344.725 591.931Z" fill="#271E2F"/>
<path d="M361 600.301L345.29 607.72L361.149 616.019L377.004 608.532L361 600.301Z" fill="#271E2F"/>
<path d="M379.246 609.685L363.371 617.181L377.516 624.583L393.52 617.026L379.246 609.685Z" fill="#271E2F"/>
<path d="M413.846 627.479L413.907 627.609L397.819 635.206L424.743 649.295L441.117 641.505L413.846 627.479Z" fill="#271E2F"/>
<path d="M332.565 604.448L320.132 597.943L303.985 605.612L316.31 612.169L332.565 604.448Z" fill="#271E2F"/>
<path d="M318.509 613.339L334.783 605.609L348.693 612.887L332.297 620.675L318.509 613.339Z" fill="#271E2F"/>
<path d="M312.795 613.697L221.881 565.327L205.239 572.514L294.89 621.429L312.795 613.697Z" fill="#271E2F"/>
<path d="M297.118 622.645L315.056 614.9L337.907 627.058L320.552 635.302L320.635 635.477L297.118 622.645Z" fill="#271E2F"/>
<path d="M322.594 636.546L337.496 644.677L356.003 636.686L340.105 628.227L322.594 636.546Z" fill="#271E2F"/>
<path d="M347.965 642.335L339.726 645.893L350.843 651.959L359.084 648.4L347.965 642.335Z" fill="#271E2F"/>
<path d="M361.313 649.616L353.072 653.176L364.771 659.559L373.015 655.999L361.313 649.616Z" fill="#271E2F"/>
<path d="M375.346 654.992L363.645 648.61L371.798 645.089L383.661 651.401L375.346 654.992Z" fill="#271E2F"/>
<path d="M375.244 657.215L367 660.775L382.656 669.318L390.549 665.563L375.244 657.215Z" fill="#271E2F"/>
<path d="M203.011 571.298L219.621 564.125L204.185 555.912L187.789 562.992L203.011 571.298Z" fill="#271E2F"/>
<path d="M185.561 561.776L201.925 554.71L192.133 549.5L191.885 549.61L191.745 549.294L189.684 548.197L173.489 555.19L185.561 561.776Z" fill="#271E2F"/>
<path d="M171.261 553.974L187.423 546.994L175.335 540.563L159.341 547.47L171.261 553.974Z" fill="#271E2F"/>
<path d="M157.111 546.254L173.075 539.361L162.082 533.512L146.051 540.218L157.111 546.254Z" fill="#271E2F"/>
<path d="M195.622 547.959L208.992 555.072L223.937 547.608L211.337 541.015L195.622 547.959Z" fill="#271E2F"/>
<path d="M209.071 539.829L193.377 546.764L165.657 532.016L181.485 525.395L209.071 539.829Z" fill="#271E2F"/>
<path d="M226.123 548.752L211.16 556.225L223.146 562.603L239.28 555.636L226.123 548.752Z" fill="#271E2F"/>
<path d="M241.561 556.829L225.406 563.805L239.065 571.072L254.642 563.675L241.561 556.829Z" fill="#271E2F"/>
<path d="M256.859 564.835L241.265 572.242L254.321 579.189L270.031 571.727L256.859 564.835Z" fill="#271E2F"/>
<path d="M272.249 572.887L256.52 580.359L269.812 587.431L285.658 579.904L272.249 572.887Z" fill="#271E2F"/>
<path d="M287.876 581.064L272.011 588.6L286.266 596.184L301.874 588.388L287.876 581.064Z" fill="#271E2F"/>
<path d="M304.061 589.532L288.433 597.338L301.787 604.443L317.915 596.782L304.061 589.532Z" fill="#271E2F"/>
<path d="M334.495 621.845L350.221 630.211L366.775 622.348L350.911 614.048L334.495 621.845Z" fill="#271E2F"/>
<path d="M368.992 623.509L352.419 631.381L367.201 639.246L383.904 631.312L368.992 623.509Z" fill="#271E2F"/>
<path d="M386.122 632.472L369.399 640.415L404.337 659.003L421.354 650.907L386.122 632.472Z" fill="#271E2F"/>
<path d="M210.98 579.705L310.586 634.331L251.999 662.205C246.818 664.67 240.772 664.517 235.723 661.794L153.318 617.951C149.98 614.705 147.48 607.205 154.028 603.53L210.98 579.705Z" fill="#271E2F"/>
<path d="M58.4805 574.705L311.98 717.705" stroke="#F587FF" stroke-opacity="0.5" stroke-width="2"/>
<path d="M311.48 717.205L521.98 617.205" stroke="#F587FF" stroke-opacity="0.5" stroke-width="2"/>
<path d="M7 409.175C10.7355 402.264 14.4362 395.463 17.7363 388.289C28.3473 365.222 50.4804 320 50.4804 320C50.4804 320 58.2254 302.932 63.9529 295.143C66.7064 291.398 69.9805 286 72.844 282.184C73.7268 279.977 74.373 298.348 74.373 299.475C74.373 321.752 75.354 333.728 76.8282 355.954C78.353 378.944 78.7154 401.751 78.7154 424.776C78.7154 437.523 79.3269 450.45 78.6735 463.192C78.3497 469.506 74.7379 483.675 66.3015 483.91C49.3199 484.381 48.2101 455.713 47.3871 444.026C46.0145 424.535 48.4684 406.467 53.9715 387.87C58.6792 371.961 66.7855 358.245 80.393 348.615C90.5713 341.412 101.42 335.089 111.931 328.4C114.246 326.927 115.64 325.811 117.977 324.476C119.479 323.617 110.521 332.889 109.873 334.062C105.873 337.837 101.003 339.892 98.873 350.544C98.0214 354.802 100.373 363.476 103.873 367.476C105.451 370.456 109.594 371.43 112.308 371.43C116.769 371.43 120.928 365.121 122.373 361.976C124.506 357.333 123.202 342.608 121.367 337.837C119.81 333.787 119.259 333.011 119.259 328.646C119.259 327.711 117.97 323.282 117.97 324.249C117.97 326.255 119.644 329.916 120.99 331.42C122.873 333.525 126.816 337.679 129.629 334.062C131.541 331.605 133.823 325.716 133.823 325.716C133.823 325.716 132.038 338.326 131.6 344.673C131.209 350.35 130.077 359.426 132.146 364.803C133.095 367.271 138.254 370.878 140.995 368.746C145.854 364.966 147.691 356.189 148.334 350.544C149.326 341.838 150.201 332.593 150.431 323.871C150.512 320.797 151.783 317.815 151.941 314.812C152.091 311.963 152.696 312.631 152.696 315.232C152.696 345.736 149.195 376.357 144.014 406.407C142.318 416.243 141.34 425.318 137.598 434.673C135.491 439.941 131.448 449.251 125.142 450.652C119.481 451.91 118.002 449.345 116.125 444.487C113.841 438.575 113.008 430.347 115.37 424.273C119.109 414.657 130.051 409.458 137.094 402.842C148.752 391.891 163.397 384.872 172.826 371.514C179.142 362.567 182.892 354.755 182.892 343.976C182.892 340.845 182.727 337.602 182.892 334.476C183.077 330.953 183.096 327.543 182.892 323.871C182.588 318.415 177.114 323.511 175.72 324.626C173.033 326.776 173.078 336.796 173.078 339.892C173.078 348.549 172.323 357.26 172.323 366.02C172.323 381.542 170.912 396.908 169.303 412.194C168.832 416.673 164.159 415.653 163.306 411.817C162.507 408.219 161.654 405.583 164.187 403.303C169 398.971 177.223 397.393 182.892 394.244C185.912 392.566 188.728 386.105 189.686 382.753C191.413 376.708 194.215 370.395 194.215 364.048C194.215 360.932 195.919 351.712 195.725 354.822C195.398 360.054 193.46 365.196 193.46 370.717C193.46 374.477 193.46 378.238 193.46 381.998C193.46 385.807 195.801 387.131 198.325 383.886C203.835 376.801 202.519 365.125 202.519 356.709C202.519 355.829 202.519 352.504 202.519 353.06C202.519 355.189 202.078 357.885 202.687 359.938C203.943 364.177 203.968 368.202 205.538 372.52C206.71 375.741 207.533 378.224 211.2 378.224C217.127 378.224 218.152 373.091 219.714 368.578C221.88 362.32 221.391 342.161 221.391 348.783C221.391 356.123 222.172 363.597 227.431 369.165C229.915 371.795 232.362 373.694 236.112 373.694C239.114 373.694 240.514 369.92 243.283 369.92" stroke="black" stroke-width="5" stroke-linecap="round"/>
<path d="M192.705 348.028H197.234" stroke="black" stroke-width="5" stroke-linecap="round"/>
<path d="M428.17 117.167C428.17 119.82 427.762 122.371 427.267 124.968C426.67 128.102 426.87 131.523 426.87 134.72" stroke="#DFABFF" stroke-linecap="round"/>
<path d="M435.321 123.993V132.119" stroke="#DFABFF" stroke-linecap="round"/>
<path d="M443.771 123.668C443.771 125.198 444.026 126.555 444.422 128.038C444.723 129.17 445.722 130.311 445.722 131.469" stroke="#DFABFF" stroke-linecap="round"/>
<path d="M459.374 123.018V127.569" stroke="#DFABFF" stroke-linecap="round"/>
<path d="M464.574 124.318C464.574 126.133 465.023 127.289 465.549 128.869" stroke="#DFABFF" stroke-linecap="round"/>
<path d="M505.529 123.343C505.529 125.205 505.048 127.907 505.854 129.519" stroke="#DFABFF" stroke-linecap="round"/>
<path d="M511.056 125.293C511.431 126.671 514.18 129.044 515.606 129.519" stroke="#DFABFF" stroke-linecap="round"/>
<path d="M535.108 119.443V125.294" stroke="#DFABFF" stroke-linecap="round"/>
<path d="M538.684 119.443C539.658 120.526 540.595 121.354 541.609 122.368" stroke="#DFABFF" stroke-linecap="round"/>
<path d="M386.24 92.7896C386.017 94.7977 383.801 96.0414 382.989 97.6652" stroke="#DFABFF" stroke-linecap="round"/>
<path d="M388.19 97.665C388.19 98.4776 388.19 99.2902 388.19 100.103C388.19 100.94 387.54 101.352 387.54 102.216" stroke="#DFABFF" stroke-linecap="round"/>
<path d="M407.692 114.892C406.668 115.917 404.237 117.132 403.792 118.468" stroke="#DFABFF" stroke-linecap="round"/>
<path d="M402.492 112.942C401.164 113.075 400.499 114.304 399.566 115.037C398.937 115.531 397.97 115.81 397.616 116.517" stroke="#DFABFF" stroke-linecap="round"/>
</g>
<defs>
<filter id="filter0_ii_528_217" x="58.1904" y="481.494" width="470.901" height="253.418" filterUnits="userSpaceOnUse" color-interpolation-filters="sRGB">
<feFlood flood-opacity="0" result="BackgroundImageFix"/>
<feBlend mode="normal" in="SourceGraphic" in2="BackgroundImageFix" result="shape"/>
<feColorMatrix in="SourceAlpha" type="matrix" values="0 0 0 0 0 0 0 0 0 0 0 0 0 0 0 0 0 0 127 0" result="hardAlpha"/>
<feOffset dy="-4"/>
<feGaussianBlur stdDeviation="5"/>
<feComposite in2="hardAlpha" operator="arithmetic" k2="-1" k3="1"/>
<feColorMatrix type="matrix" values="0 0 0 0 0.644016 0 0 0 0 0.422812 0 0 0 0 0.825 0 0 0 0.5 0"/>
<feBlend mode="normal" in2="shape" result="effect1_innerShadow_528_217"/>
<feColorMatrix in="SourceAlpha" type="matrix" values="0 0 0 0 0 0 0 0 0 0 0 0 0 0 0 0 0 0 127 0" result="hardAlpha"/>
<feOffset dy="10"/>
<feGaussianBlur stdDeviation="25"/>
<feComposite in2="hardAlpha" operator="arithmetic" k2="-1" k3="1"/>
<feColorMatrix type="matrix" values="0 0 0 0 0.319514 0 0 0 0 0.823008 0 0 0 0 0.891667 0 0 0 0.5 0"/>
<feBlend mode="normal" in2="effect1_innerShadow_528_217" result="effect2_innerShadow_528_217"/>
</filter>
<filter id="filter1_ii_528_217" x="307.091" y="34.6792" width="264.673" height="288.205" filterUnits="userSpaceOnUse" color-interpolation-filters="sRGB">
<feFlood flood-opacity="0" result="BackgroundImageFix"/>
<feBlend mode="normal" in="SourceGraphic" in2="BackgroundImageFix" result="shape"/>
<feColorMatrix in="SourceAlpha" type="matrix" values="0 0 0 0 0 0 0 0 0 0 0 0 0 0 0 0 0 0 127 0" result="hardAlpha"/>
<feOffset dx="10" dy="25"/>
<feGaussianBlur stdDeviation="25"/>
<feComposite in2="hardAlpha" operator="arithmetic" k2="-1" k3="1"/>
<feColorMatrix type="matrix" values="0 0 0 0 0 0 0 0 0 0.802917 0 0 0 0 0.854167 0 0 0 0.25 0"/>
<feBlend mode="normal" in2="shape" result="effect1_innerShadow_528_217"/>
<feColorMatrix in="SourceAlpha" type="matrix" values="0 0 0 0 0 0 0 0 0 0 0 0 0 0 0 0 0 0 127 0" result="hardAlpha"/>
<feOffset dx="-5" dy="-5"/>
<feGaussianBlur stdDeviation="5"/>
<feComposite in2="hardAlpha" operator="arithmetic" k2="-1" k3="1"/>
<feColorMatrix type="matrix" values="0 0 0 0 0 0 0 0 0 0 0 0 0 0 0 0 0 0 0.25 0"/>
<feBlend mode="normal" in2="effect1_innerShadow_528_217" result="effect2_innerShadow_528_217"/>
</filter>
<filter id="filter2_ii_528_217" x="324.48" y="237.433" width="219.049" height="278.777" filterUnits="userSpaceOnUse" color-interpolation-filters="sRGB">
<feFlood flood-opacity="0" result="BackgroundImageFix"/>
<feBlend mode="normal" in="SourceGraphic" in2="BackgroundImageFix" result="shape"/>
<feColorMatrix in="SourceAlpha" type="matrix" values="0 0 0 0 0 0 0 0 0 0 0 0 0 0 0 0 0 0 127 0" result="hardAlpha"/>
<feOffset dx="10" dy="50"/>
<feGaussianBlur stdDeviation="37"/>
<feComposite in2="hardAlpha" operator="arithmetic" k2="-1" k3="1"/>
<feColorMatrix type="matrix" values="0 0 0 0 0 0 0 0 0 0.802917 0 0 0 0 0.854167 0 0 0 0.25 0"/>
<feBlend mode="normal" in2="shape" result="effect1_innerShadow_528_217"/>
<feColorMatrix in="SourceAlpha" type="matrix" values="0 0 0 0 0 0 0 0 0 0 0 0 0 0 0 0 0 0 127 0" result="hardAlpha"/>
<feOffset dx="-5" dy="-5"/>
<feGaussianBlur stdDeviation="5"/>
<feComposite in2="hardAlpha" operator="arithmetic" k2="-1" k3="1"/>
<feColorMatrix type="matrix" values="0 0 0 0 0 0 0 0 0 0 0 0 0 0 0 0 0 0 0.25 0"/>
<feBlend mode="normal" in2="effect1_innerShadow_528_217" result="effect2_innerShadow_528_217"/>
</filter>
<filter id="filter3_i_528_217" x="417.538" y="270.042" width="52.4424" height="23.0342" filterUnits="userSpaceOnUse" color-interpolation-filters="sRGB">
<feFlood flood-opacity="0" result="BackgroundImageFix"/>
<feBlend mode="normal" in="SourceGraphic" in2="BackgroundImageFix" result="shape"/>
<feColorMatrix in="SourceAlpha" type="matrix" values="0 0 0 0 0 0 0 0 0 0 0 0 0 0 0 0 0 0 127 0" result="hardAlpha"/>
<feOffset/>
<feGaussianBlur stdDeviation="2.5"/>
<feComposite in2="hardAlpha" operator="arithmetic" k2="-1" k3="1"/>
<feColorMatrix type="matrix" values="0 0 0 0 1 0 0 0 0 0.956 0 0 0 0 0.8 0 0 0 1 0"/>
<feBlend mode="normal" in2="shape" result="effect1_innerShadow_528_217"/>
</filter>
<filter id="filter4_i_528_217" x="428.98" y="242.433" width="56" height="74.6865" filterUnits="userSpaceOnUse" color-interpolation-filters="sRGB">
<feFlood flood-opacity="0" result="BackgroundImageFix"/>
<feBlend mode="normal" in="SourceGraphic" in2="BackgroundImageFix" result="shape"/>
<feColorMatrix in="SourceAlpha" type="matrix" values="0 0 0 0 0 0 0 0 0 0 0 0 0 0 0 0 0 0 127 0" result="hardAlpha"/>
<feOffset dx="10" dy="25"/>
<feGaussianBlur stdDeviation="25"/>
<feComposite in2="hardAlpha" operator="arithmetic" k2="-1" k3="1"/>
<feColorMatrix type="matrix" values="0 0 0 0 0.854167 0 0 0 0 0 0 0 0 0 0 0 0 0 0.25 0"/>
<feBlend mode="normal" in2="shape" result="effect1_innerShadow_528_217"/>
</filter>
<filter id="filter5_i_528_217" x="354.279" y="212.705" width="79.6572" height="67.0396" filterUnits="userSpaceOnUse" color-interpolation-filters="sRGB">
<feFlood flood-opacity="0" result="BackgroundImageFix"/>
<feBlend mode="normal" in="SourceGraphic" in2="BackgroundImageFix" result="shape"/>
<feColorMatrix in="SourceAlpha" type="matrix" values="0 0 0 0 0 0 0 0 0 0 0 0 0 0 0 0 0 0 127 0" result="hardAlpha"/>
<feOffset dy="4"/>
<feGaussianBlur stdDeviation="12.5"/>
<feComposite in2="hardAlpha" operator="arithmetic" k2="-1" k3="1"/>
<feColorMatrix type="matrix" values="0 0 0 0 0 0 0 0 0 0 0 0 0 0 0 0 0 0 0.25 0"/>
<feBlend mode="normal" in2="shape" result="effect1_innerShadow_528_217"/>
</filter>
<filter id="filter6_i_528_217" x="467.98" y="159.205" width="22.6465" height="39.6738" filterUnits="userSpaceOnUse" color-interpolation-filters="sRGB">
<feFlood flood-opacity="0" result="BackgroundImageFix"/>
<feBlend mode="normal" in="SourceGraphic" in2="BackgroundImageFix" result="shape"/>
<feColorMatrix in="SourceAlpha" type="matrix" values="0 0 0 0 0 0 0 0 0 0 0 0 0 0 0 0 0 0 127 0" result="hardAlpha"/>
<feOffset dy="4"/>
<feGaussianBlur stdDeviation="2"/>
<feComposite in2="hardAlpha" operator="arithmetic" k2="-1" k3="1"/>
<feColorMatrix type="matrix" values="0 0 0 0 0 0 0 0 0 0 0 0 0 0 0 0 0 0 0.25 0"/>
<feBlend mode="normal" in2="shape" result="effect1_innerShadow_528_217"/>
</filter>
<filter id="filter7_d_528_217" x="383.287" y="184.191" width="105.401" height="32.6851" filterUnits="userSpaceOnUse" color-interpolation-filters="sRGB">
<feFlood flood-opacity="0" result="BackgroundImageFix"/>
<feColorMatrix in="SourceAlpha" type="matrix" values="0 0 0 0 0 0 0 0 0 0 0 0 0 0 0 0 0 0 127 0" result="hardAlpha"/>
<feOffset dy="4"/>
<feGaussianBlur stdDeviation="2"/>
<feComposite in2="hardAlpha" operator="out"/>
<feColorMatrix type="matrix" values="0 0 0 0 1 0 0 0 0 0.229167 0 0 0 0 0.229167 0 0 0 0.25 0"/>
<feBlend mode="normal" in2="BackgroundImageFix" result="effect1_dropShadow_528_217"/>
<feBlend mode="normal" in="SourceGraphic" in2="effect1_dropShadow_528_217" result="shape"/>
</filter>
<filter id="filter8_di_528_217" x="408.48" y="2.00049" width="48.0117" height="26.1196" filterUnits="userSpaceOnUse" color-interpolation-filters="sRGB">
<feFlood flood-opacity="0" result="BackgroundImageFix"/>
<feColorMatrix in="SourceAlpha" type="matrix" values="0 0 0 0 0 0 0 0 0 0 0 0 0 0 0 0 0 0 127 0" result="hardAlpha"/>
<feOffset dy="4"/>
<feGaussianBlur stdDeviation="2"/>
<feComposite in2="hardAlpha" operator="out"/>
<feColorMatrix type="matrix" values="0 0 0 0 0 0 0 0 0 0 0 0 0 0 0 0 0 0 0.25 0"/>
<feBlend mode="normal" in2="BackgroundImageFix" result="effect1_dropShadow_528_217"/>
<feBlend mode="normal" in="SourceGraphic" in2="effect1_dropShadow_528_217" result="shape"/>
<feColorMatrix in="SourceAlpha" type="matrix" values="0 0 0 0 0 0 0 0 0 0 0 0 0 0 0 0 0 0 127 0" result="hardAlpha"/>
<feOffset dx="-2" dy="-4"/>
<feGaussianBlur stdDeviation="0.5"/>
<feComposite in2="hardAlpha" operator="arithmetic" k2="-1" k3="1"/>
<feColorMatrix type="matrix" values="0 0 0 0 0.420778 0 0 0 0 0.583333 0 0 0 0 0.315972 0 0 0 0.33 0"/>
<feBlend mode="normal" in2="shape" result="effect2_innerShadow_528_217"/>
</filter>
<filter id="filter9_i_528_217" x="392.98" y="150.205" width="22.6465" height="39.6738" filterUnits="userSpaceOnUse" color-interpolation-filters="sRGB">
<feFlood flood-opacity="0" result="BackgroundImageFix"/>
<feBlend mode="normal" in="SourceGraphic" in2="BackgroundImageFix" result="shape"/>
<feColorMatrix in="SourceAlpha" type="matrix" values="0 0 0 0 0 0 0 0 0 0 0 0 0 0 0 0 0 0 127 0" result="hardAlpha"/>
<feOffset dy="4"/>
<feGaussianBlur stdDeviation="2"/>
<feComposite in2="hardAlpha" operator="arithmetic" k2="-1" k3="1"/>
<feColorMatrix type="matrix" values="0 0 0 0 0 0 0 0 0 0 0 0 0 0 0 0 0 0 0.25 0"/>
<feBlend mode="normal" in2="shape" result="effect1_innerShadow_528_217"/>
</filter>
<clipPath id="clip0_528_217">
<rect width="567" height="726" fill="white"/>
</clipPath>
</defs>
</svg>
