<svg width="1153" height="480" viewBox="0 0 1153 480" fill="none" xmlns="http://www.w3.org/2000/svg">
<path d="M851.193 188.676L1070.5 154L958.483 303.75L942.122 255.382H892.5V198.762L851.193 188.676Z" fill="#EEDDFF"/>
<path d="M1 450L548.371 411.545L892.5 255.382M892.5 255.382L933.807 208.848M892.5 255.382H942.122M892.5 255.382V198.762M892.5 255.382L910.5 203.157M1070.5 154L851.193 188.676L892.5 198.762M1070.5 154L933.807 208.848M1070.5 154L958.483 303.75L942.122 255.382M933.807 208.848L942.122 255.382M933.807 208.848C924.61 206.603 917.716 204.919 910.5 203.157M892.5 198.762C899.434 200.455 905.059 201.829 910.5 203.157" stroke="#D5A5FE" stroke-width="3"/>
<path d="M723 381L931.5 369L806 476.5L796.5 431L747.878 445L756.5 390.5L723 381Z" fill="#EEDDFF"/>
<path d="M1 366.5L505.5 461.5L747.878 445M747.878 445L789.185 398.466M747.878 445L796.5 431M747.878 445L756.5 390.5M747.878 445L771.5 394M931.5 369L723 381L756.5 390.5M931.5 369L789.185 398.466M931.5 369L806 476.5L796.5 431M789.185 398.466L796.5 431M789.185 398.466C779.988 396.22 778.716 395.762 771.5 394M756.5 390.5C772.5 394.392 766.059 392.671 771.5 394" stroke="#D5A5FE" stroke-width="3"/>
</svg>
