<svg width="40" height="30" viewBox="0 0 40 30" fill="none" xmlns="http://www.w3.org/2000/svg">
<path fill-rule="evenodd" clip-rule="evenodd" d="M14.5022 27.748C12.9446 29.2641 10.9016 30 8.43296 30C5.93626 30 3.87756 29.2496 2.31916 27.7031L2.31524 27.6992C0.753736 26.1198 0 23.9926 0 21.3885V20.8034H4.82991L4.84103 21.377C4.86616 22.6731 5.19006 23.6726 5.7678 24.4229C6.33409 25.1251 7.18783 25.5129 8.43296 25.5129C9.69188 25.5129 10.5293 25.1435 11.0627 24.4984C11.6383 23.7746 11.9438 22.8478 11.9438 21.6751V3.97233H4.73703V0H34.2003V3.97233H27.7681V25.3846H29.4118H35.2941L40 25.3846V25.3773L40 25.3846C40 27.9336 37.8931 30 35.2941 30H29.4118H22.927V3.97233H16.8254V21.6751C16.8254 24.1531 16.0654 26.1968 14.5063 27.744L14.5022 27.748Z" fill="#333333"/>
</svg>
