<svg width="100" height="78" viewBox="0 0 100 78" fill="none" xmlns="http://www.w3.org/2000/svg">
<path d="M38.1638 72.1448C34.0646 76.0866 28.6883 78 22.192 78C15.6217 78 10.2041 76.049 6.10304 72.028L6.09274 72.0178C1.98352 67.9114 0 62.3807 0 55.61V54.0889H12.7103L12.7395 55.5802C12.8057 58.95 13.658 61.5488 15.1784 63.4994C16.6687 65.3252 18.9153 66.3335 22.192 66.3335C25.5049 66.3335 27.7086 65.3731 29.1124 63.6958C30.6271 61.814 31.431 59.4042 31.431 56.3553V10.3281H12.4659V0H79.9999V10.3281H73.0739V66L100 66.0004C100 72.3658 94.8854 77.5732 88.4211 77.9751L60.3341 78V10.3281H44.2774V56.3553C44.2774 62.7981 42.2773 68.1117 38.1744 72.1345L38.1638 72.1448Z" fill="#333333"/>
</svg>
