<svg width="1074" height="329" viewBox="0 0 1074 329" fill="none" xmlns="http://www.w3.org/2000/svg">
<path d="M851.193 37.6759L1070.5 3L958.483 152.75L942.122 104.382H892.5V47.7621L851.193 37.6759Z" fill="#FFF4CC"/>
<path d="M1 299L548.371 260.545L892.5 104.382M892.5 104.382L933.807 57.8483M892.5 104.382H942.122M892.5 104.382V47.7621M892.5 104.382L910.5 52.1574M1070.5 3L851.193 37.6759L892.5 47.7621M1070.5 3L933.807 57.8483M1070.5 3L958.483 152.75L942.122 104.382M933.807 57.8483L942.122 104.382M933.807 57.8483C924.61 55.6026 917.716 53.9195 910.5 52.1574M892.5 47.7621C899.434 49.4553 905.059 50.8288 910.5 52.1574" stroke="white" stroke-width="3"/>
<path d="M723 230L931.5 218L806 325.5L796.5 280L747.878 294L756.5 239.5L723 230Z" fill="#FFE898"/>
<path d="M1 215.5L505.5 310.5L747.878 294M747.878 294L789.185 247.466M747.878 294L796.5 280M747.878 294L756.5 239.5M747.878 294L771.5 243M931.5 218L723 230L756.5 239.5M931.5 218L789.185 247.466M931.5 218L806 325.5L796.5 280M789.185 247.466L796.5 280M789.185 247.466C779.988 245.22 778.716 244.762 771.5 243M756.5 239.5C772.5 243.392 766.059 241.671 771.5 243" stroke="white" stroke-width="3"/>
</svg>
